<?xml version="1.0" standalone="no"?>
<!DOCTYPE svg PUBLIC "-//W3C//DTD SVG 20010904//EN"
 "http://www.w3.org/TR/2001/REC-SVG-20010904/DTD/svg10.dtd">
<svg version="1.0" xmlns="http://www.w3.org/2000/svg"
 width="290.000000pt" height="290.000000pt" viewBox="0 0 290.000000 290.000000"
 preserveAspectRatio="xMidYMid meet">
<metadata>
Created by potrace 1.14, written by Peter Selinger 2001-2017
</metadata>
<g transform="translate(0.000000,290.000000) scale(0.100000,-0.100000)"
fill="#000000" stroke="none">
<path d="M623 2228 c0 -120 -2 -221 -6 -224 -3 -3 -2 -18 2 -32 6 -24 7 -112
2 -247 -1 -22 0 -59 1 -83 2 -23 0 -42 -4 -42 -8 0 -3 -34 7 -50 4 -6 1 -17
-5 -25 -7 -8 -8 -15 -3 -15 5 0 9 -9 10 -20 1 -11 -2 -18 -6 -16 -4 3 -8 -1
-8 -9 0 -8 4 -15 8 -15 4 0 6 -12 4 -27 -8 -67 -9 -99 -2 -110 5 -7 3 -22 -4
-34 -6 -12 -7 -19 -2 -16 12 7 10 -316 -2 -325 -7 -5 -7 -8 0 -8 6 0 10 -47
10 -119 1 -80 -3 -117 -10 -113 -6 3 -6 0 1 -9 6 -8 10 -52 9 -106 l-1 -93 69
0 c52 0 66 -3 61 -12 -6 -10 -5 -10 7 -1 12 9 100 12 345 12 541 0 594 1 594
9 0 5 -238 8 -529 6 l-530 -1 2 418 c1 231 -1 419 -5 419 -4 0 -5 10 -2 23 7
29 8 217 1 223 -2 3 -1 20 3 37 4 18 3 43 -1 55 -5 14 -4 22 3 22 7 0 7 4 -1
13 -6 8 -8 17 -5 20 9 9 8 222 0 236 -4 6 -4 16 0 23 10 15 11 68 2 68 -7 0
-3 34 6 48 2 4 1 14 -4 22 -5 9 -5 19 2 27 6 7 7 13 2 13 -12 0 -11 133 1 142
7 5 7 8 0 8 -11 0 -11 72 -1 88 3 6 0 13 -6 15 -7 3 16 5 52 5 36 0 71 -5 79
-12 12 -8 13 -8 7 2 -5 9 10 12 66 13 280 3 290 2 299 -12 7 -12 9 -11 9 2 0
13 10 16 53 14 38 -2 51 -6 49 -16 -2 -11 1 -11 10 1 18 21 234 21 230 -1 -2
-11 1 -10 10 2 14 17 64 19 87 4 9 -5 12 -4 8 2 -7 11 81 12 100 0 6 -4 14 -3
18 2 7 13 46 5 58 -11 6 -10 8 -9 4 3 -4 12 2 16 24 16 16 0 29 -5 29 -11 0
-7 3 -7 8 -1 9 13 113 15 105 2 -4 -6 -1 -7 8 -1 8 5 56 9 107 9 74 1 95 -2
103 -14 9 -14 10 -13 5 2 -4 11 0 17 12 17 15 0 17 -13 18 -118 0 -74 -3 -120
-10 -124 -7 -5 -7 -8 -1 -8 14 0 15 -630 1 -630 -7 0 -8 -3 -1 -8 14 -9 15
-253 2 -245 -6 4 -7 1 -1 -8 5 -8 9 -188 10 -401 l1 -388 -181 -1 c-100 0
-209 -1 -243 -1 -35 0 -63 -4 -63 -9 0 -4 70 -8 155 -7 85 1 157 -1 161 -4 3
-4 13 -4 21 -1 8 3 49 6 91 7 l77 1 -2 74 c-1 47 2 80 10 90 7 8 7 12 1 8 -15
-9 -15 185 0 195 8 5 8 8 0 8 -15 0 -15 442 0 452 8 6 8 8 -1 8 -16 0 -16 230
1 230 8 0 8 2 -1 8 -15 9 -15 144 1 154 8 6 7 8 -1 8 -8 0 -13 14 -13 38 0 21
6 44 13 51 10 11 9 12 -1 6 -11 -5 -13 8 -12 66 1 41 1 183 1 317 l-1 243
-794 -2 -793 -3 0 -218z"/>
<path d="M1316 2218 c-46 -10 -69 -26 -59 -42 4 -6 -1 -5 -10 3 -9 7 -18 10
-18 5 -5 -38 23 -94 48 -94 10 0 11 4 3 19 -16 31 -12 35 9 10 l20 -24 -42
-21 c-23 -12 -54 -34 -68 -48 -25 -25 -27 -25 -40 -9 -13 16 -12 17 2 5 14
-10 18 -10 24 5 5 10 7 22 6 26 -1 5 3 6 8 2 6 -3 22 2 36 11 l25 16 -20 25
c-11 14 -20 31 -20 38 0 16 -25 37 -33 28 -4 -3 -1 -13 6 -22 10 -14 10 -14
-5 -3 -20 16 -42 6 -33 -15 4 -12 2 -13 -8 -5 -10 9 -21 4 -48 -25 -22 -23
-30 -37 -21 -40 22 -8 13 -20 -13 -15 -18 3 -27 -1 -31 -14 -4 -11 -12 -26
-19 -34 -21 -26 -24 -59 -7 -71 14 -9 13 -10 -6 -5 -23 4 -23 4 -7 -21 16 -24
16 -25 -4 -18 -18 6 -21 2 -22 -29 -2 -48 -3 -53 -11 -61 -4 -4 -3 -16 3 -27
6 -11 9 -29 6 -39 -4 -14 0 -19 16 -19 12 0 18 -4 12 -8 -14 -10 -17 -32 -9
-51 4 -9 8 -18 9 -21 9 -28 31 -60 42 -60 12 0 18 -20 14 -44 -2 -9 69 45 89
69 11 13 9 15 -12 15 -13 0 -28 -3 -34 -7 -5 -5 0 2 13 13 20 21 21 22 3 27
-10 3 -24 0 -31 -7 -10 -8 -10 -7 0 6 7 10 18 15 23 12 5 -3 4 3 -3 14 -7 12
-18 18 -24 14 -6 -4 -2 1 8 11 19 16 18 17 -14 18 -31 0 -32 1 -11 9 12 5 22
15 22 22 1 17 20 -16 25 -42 12 -63 126 -179 190 -194 89 -21 106 -23 111 -14
4 6 10 5 15 -3 5 -8 9 -9 9 -4 0 6 12 12 27 13 15 1 44 10 64 20 42 21 55 19
71 -11 11 -21 10 -21 -9 -4 -21 18 -48 24 -38 7 3 -5 8 -20 10 -31 4 -22 32
-59 44 -57 3 0 8 -1 11 -2 19 -7 40 -7 40 1 0 5 -6 9 -12 9 -7 1 -1 8 15 16
15 8 39 33 52 55 14 22 30 37 34 34 5 -2 14 2 21 10 7 8 9 15 6 15 -4 0 -2 9
4 19 7 14 6 21 -3 24 -9 4 -9 6 1 6 37 2 55 72 24 90 -16 10 -16 10 1 12 31 3
35 4 44 13 4 5 3 6 -4 2 -9 -5 -11 3 -7 34 8 54 -2 90 -24 90 -16 1 -16 2 1
14 17 13 16 15 -10 25 l-28 11 26 -3 c27 -4 27 -4 14 32 -9 26 -17 35 -31 33
-14 -2 -16 -1 -5 6 16 11 9 37 -19 70 -17 21 -22 22 -40 9 -11 -7 -17 -17 -12
-21 4 -4 2 -6 -3 -5 -6 2 -20 -3 -32 -11 -21 -14 -21 -14 -2 -41 10 -15 19
-32 19 -37 0 -6 6 -13 13 -15 9 -4 9 -6 0 -6 -7 -1 -22 16 -33 37 -22 42 -75
102 -90 102 -5 0 -10 5 -10 10 0 6 -3 9 -7 8 -5 -1 -18 3 -29 10 -12 6 -25 8
-29 4 -5 -4 -5 -1 -1 6 4 7 12 9 18 6 6 -4 15 0 20 7 8 11 9 10 4 -3 -6 -20
14 -24 31 -7 9 9 10 7 6 -10 -4 -15 -1 -21 10 -21 8 0 17 -6 19 -12 3 -9 12
-8 34 5 l29 18 -27 -25 c-44 -40 -4 -48 45 -9 38 29 34 54 -15 91 -48 37 -53
38 -68 15 -9 -16 -10 -15 -5 5 5 16 2 22 -9 22 -9 0 -16 -4 -16 -9 0 -5 -7
-11 -15 -15 -12 -4 -13 -2 -3 14 15 24 0 44 -35 46 -12 1 -29 4 -37 7 -30 12
-80 15 -80 6 0 -6 -6 -7 -12 -2 -18 11 -28 11 -72 1z m-9 -33 c0 -8 -4 -15 -9
-15 -10 0 -11 14 -1 23 9 10 10 9 10 -8z m160 -17 c-3 -7 -5 -2 -5 12 0 14 2
19 5 13 2 -7 2 -19 0 -25z m-50 -30 c-3 -8 -6 -5 -6 6 -1 11 2 17 5 13 3 -3 4
-12 1 -19z m-87 -26 c1 -16 1 -16 14 0 11 15 17 15 52 3 l39 -13 -42 0 c-22 0
-46 -3 -51 -6 -6 -3 -14 -1 -19 6 -11 19 -13 39 -2 32 5 -3 9 -13 9 -22z m161
5 c-10 -9 -11 -8 -5 6 3 10 9 15 12 12 3 -3 0 -11 -7 -18z m142 -2 c-3 -9 -8
-14 -10 -11 -3 3 -2 9 2 15 9 16 15 13 8 -4z m-468 -17 c5 4 5 1 1 -5 -10 -18
-23 -16 -30 3 -5 13 -4 14 7 6 8 -7 18 -8 22 -4z m310 2 c8 -13 -5 -13 -25 0
-13 8 -13 10 2 10 9 0 20 -4 23 -10z m-15 -43 c0 -4 8 -7 18 -6 22 3 93 -32
86 -43 -3 -4 1 -8 9 -8 15 0 53 -49 49 -62 -1 -5 3 -8 9 -8 5 0 7 -4 4 -10 -3
-5 -1 -10 5 -10 6 0 8 -4 5 -10 -3 -5 -1 -10 5 -10 7 0 10 -6 7 -14 -3 -8 -3
-17 1 -21 10 -10 11 -75 1 -69 -5 3 -9 15 -9 28 0 31 -19 47 -42 35 -12 -6
-18 -6 -18 1 0 5 6 10 13 10 32 1 39 16 23 49 -9 17 -13 31 -9 31 5 0 0 5 -9
11 -10 5 -18 17 -18 24 0 8 -5 15 -11 15 -5 0 -8 -4 -5 -9 7 -11 -22 -36 -31
-27 -3 3 -1 6 5 6 18 0 14 28 -6 48 -15 15 -54 30 -127 48 -16 4 -17 3 -5 -5
26 -18 2 -23 -25 -5 -17 11 -29 14 -33 7 -4 -5 -17 -9 -30 -8 -16 1 -24 -5
-28 -21 -5 -19 -10 -22 -24 -14 -13 7 -20 6 -24 -6 -3 -8 -9 -13 -14 -10 -4 2
-21 -15 -37 -39 -29 -44 -50 -60 -39 -30 4 8 11 15 17 15 6 0 8 3 4 6 -14 15
98 106 135 109 3 0 9 3 12 6 10 9 136 6 136 -4z m-323 -101 c-28 -36 -46 -105
-44 -158 1 -21 -1 -38 -4 -38 -9 0 -19 39 -11 44 13 8 7 71 -7 68 -7 -1 -10 2
-6 8 3 6 10 8 15 5 5 -3 12 0 16 6 4 7 3 9 -4 5 -6 -3 -13 -2 -17 4 -3 5 1 10
9 10 20 0 17 22 -4 33 -8 4 -2 5 14 2 l29 -6 -18 28 c-12 18 -13 24 -4 17 12
-9 25 -10 44 -5 2 0 -7 12 -20 26 -14 13 -25 28 -25 34 0 5 14 -4 30 -21 l31
-30 -24 -32z m270 42 c-3 -8 -6 -5 -6 6 -1 11 2 17 5 13 3 -3 4 -12 1 -19z
m54 9 c-6 -8 -7 -18 -3 -22 4 -5 2 -5 -5 -1 -14 8 -6 36 9 36 7 0 6 -5 -1 -13z
m49 -7 c8 -5 11 -10 5 -10 -5 0 -17 5 -25 10 -8 5 -10 10 -5 10 6 0 17 -5 25
-10z m-150 -10 c-8 -5 -19 -10 -25 -10 -5 0 -3 5 5 10 8 5 20 10 25 10 6 0 3
-5 -5 -10z m400 6 c0 -2 -6 -9 -14 -15 -11 -9 -16 -9 -22 0 -4 7 -3 9 4 5 6
-3 13 -2 17 4 6 10 15 14 15 6z m-331 -33 c5 -10 13 -15 17 -11 4 5 13 3 20
-3 9 -7 18 -4 35 13 l23 23 -18 -29 c-14 -22 -15 -31 -5 -40 9 -8 10 -8 5 4
-4 8 4 2 18 -15 14 -16 26 -36 26 -42 0 -7 6 -13 14 -13 10 0 12 -9 6 -41 -6
-29 -4 -44 7 -55 11 -11 12 -14 1 -14 -7 -1 -28 -21 -46 -46 -32 -43 -33 -46
-18 -70 20 -29 11 -32 -12 -4 -15 18 -22 19 -54 10 -30 -9 -38 -16 -38 -35 0
-13 5 -26 10 -28 6 -3 5 -4 -2 -3 -7 1 -14 14 -16 28 -3 21 -10 27 -40 33 -20
4 -43 12 -50 17 -9 8 -19 5 -35 -11 -30 -27 -44 -28 -18 0 19 20 19 23 3 55
-12 24 -24 34 -42 35 -16 1 -19 3 -8 6 14 3 16 15 15 61 -2 43 1 56 11 54 8
-1 11 2 7 8 -3 6 -11 8 -16 5 -5 -4 -9 -1 -9 4 0 10 14 15 33 12 5 -1 6 3 2 9
-3 5 -1 10 5 10 6 0 9 4 6 9 -3 5 1 12 10 15 14 5 12 10 -10 31 -15 14 -24 25
-20 25 4 0 18 -10 31 -22 19 -18 26 -20 32 -9 5 8 14 10 21 6 9 -5 11 -4 6 3
-8 13 5 16 20 4 5 -4 8 -5 7 -3 -4 6 31 30 44 31 7 0 16 -8 22 -17z m300 -21
c7 -13 6 -19 -2 -19 -7 0 -13 9 -13 19 0 10 1 18 3 18 1 0 7 -8 12 -18z m-511
-14 c-2 -7 3 -12 10 -10 8 1 11 -2 7 -7 -6 -11 -35 -4 -35 8 0 8 11 21 17 21
2 0 2 -6 1 -12z m382 -27 c0 -5 -7 -12 -16 -15 -14 -5 -15 -4 -4 9 14 17 20
19 20 6z m-427 -16 c8 -8 17 -12 20 -9 3 3 8 1 11 -5 4 -6 -4 -8 -21 -5 -16 3
-30 9 -31 15 -2 5 -9 6 -14 3 -7 -4 -8 -2 -4 4 10 16 22 15 39 -3z m-126 -11
c-3 -3 -12 -4 -19 -1 -8 3 -5 6 6 6 11 1 17 -2 13 -5z m674 -3 c-7 -5 -10 -14
-7 -20 4 -6 12 -9 17 -6 5 4 9 1 9 -5 0 -7 -7 -9 -16 -6 -11 4 -14 1 -12 -12
2 -10 11 -16 23 -15 17 2 17 1 -2 -9 -27 -13 -30 -28 -5 -28 15 -1 15 -2 -3
-15 -18 -15 -18 -16 13 -27 18 -7 32 -16 32 -21 0 -4 -9 -3 -19 3 -28 15 -51
12 -51 -5 0 -8 -4 -15 -9 -15 -5 0 -7 9 -4 20 3 11 8 20 12 20 3 0 6 27 6 60
0 33 -3 60 -7 60 -19 0 -5 26 14 27 16 2 19 0 9 -6z m-571 -10 c0 -6 -4 -12
-8 -15 -5 -3 -8 -15 -6 -28 1 -13 3 -33 3 -45 1 -17 5 -21 19 -16 16 7 16 6 0
-11 -16 -16 -16 -20 -3 -53 16 -37 67 -93 85 -93 5 0 10 -6 10 -13 0 -7 19
-20 41 -30 23 -10 39 -20 36 -23 -9 -10 -83 34 -122 73 -63 63 -85 132 -76
246 1 17 21 25 21 8z m-100 -35 c0 -3 -4 -8 -10 -11 -5 -3 -10 -1 -10 4 0 6 5
11 10 11 6 0 10 -2 10 -4z m150 -4 c0 -4 -9 -8 -19 -8 -11 0 -17 4 -15 8 3 4
12 8 20 8 8 0 14 -4 14 -8z m605 -12 c3 -6 -1 -7 -9 -4 -18 7 -21 14 -7 14 6
0 13 -4 16 -10z m-175 -8 c0 -4 -9 -8 -20 -8 -11 0 -20 4 -20 8 0 4 9 8 20 8
11 0 20 -4 20 -8z m-438 -44 c-6 -6 -7 0 -4 19 5 21 7 23 10 9 2 -10 0 -22 -6
-28z m472 -10 c-3 -13 -6 -29 -6 -35 -1 -7 -4 -13 -8 -13 -4 0 -7 -6 -7 -13 0
-17 -33 -67 -45 -67 -5 0 -7 -4 -4 -8 7 -12 -41 -45 -99 -67 -62 -24 -75 -26
-75 -13 0 6 7 8 15 4 8 -3 15 0 15 6 0 6 3 9 6 5 9 -8 64 21 64 33 0 6 9 10
20 10 21 0 70 44 70 63 0 7 6 19 13 26 6 8 7 11 2 8 -6 -3 -17 -1 -25 4 -13 9
-13 10 0 8 32 -3 39 2 46 36 3 19 10 35 15 35 4 0 5 -10 3 -22z m-642 -40 c-7
-7 -12 -8 -12 -2 0 14 12 26 19 19 2 -3 -1 -11 -7 -17z m195 -45 c9 -7 12 -13
5 -13 -14 0 -42 40 -41 60 0 8 5 4 10 -10 5 -14 17 -31 26 -37z m363 37 c0 -5
-5 -10 -11 -10 -5 0 -7 5 -4 10 3 6 8 10 11 10 2 0 4 -4 4 -10z m106 -44 c0
-14 -5 -24 -10 -23 -6 1 -10 -4 -8 -10 1 -7 -3 -13 -9 -13 -8 0 -8 -4 0 -14 9
-11 9 -16 -1 -22 -7 -4 -10 -4 -6 1 4 4 3 14 -2 20 -8 9 -4 23 11 49 11 20 22
36 23 36 1 0 2 -11 2 -24z m-111 -8 c5 4 5 1 1 -6 -6 -10 -11 -10 -22 -1 -8 6
-14 14 -14 16 0 3 6 0 13 -6 8 -6 18 -7 22 -3z m-520 -38 c-3 -5 -12 -10 -18
-10 -7 0 -6 4 3 10 19 12 23 12 15 0z m252 -10 c-1 -12 -5 -16 -10 -11 -5 5
-6 14 -3 20 11 16 15 13 13 -9z m168 -10 c0 -7 -7 -15 -15 -17 -13 -4 -13 -3
0 6 13 10 13 12 0 22 -13 9 -13 10 0 6 8 -2 15 -10 15 -17z m157 -8 c-7 -2 -3
-12 11 -25 13 -12 16 -16 7 -9 -9 6 -24 12 -33 12 -14 0 -15 3 -5 19 7 11 17
17 22 14 6 -4 6 -8 -2 -11z m73 -22 c10 -11 16 -20 13 -20 -3 0 -13 9 -23 20
-10 11 -16 20 -13 20 3 0 13 -9 23 -20z m-340 1 c-3 -5 -1 -12 5 -16 15 -9 12
-24 -5 -21 -23 3 -29 14 -15 31 14 16 25 21 15 6z m250 -19 c-2 -3 0 -11 7
-19 7 -9 0 -8 -20 4 -33 19 -34 34 -2 26 12 -3 18 -8 15 -11z m-205 -12 c0 -5
-4 -10 -10 -10 -5 0 -10 5 -10 10 0 6 5 10 10 10 6 0 10 -4 10 -10z m255 -30
c3 -5 1 -10 -4 -10 -6 0 -11 5 -11 10 0 6 2 10 4 10 3 0 8 -4 11 -10z"/>
<path d="M1320 1920 c-9 -6 -10 -10 -3 -10 6 0 15 5 18 10 8 12 4 12 -15 0z"/>
<path d="M1109 1557 c-31 -28 -62 -76 -40 -63 4 3 17 -2 27 -10 10 -9 13 -13
7 -9 -9 4 -11 1 -7 -9 5 -14 8 -13 23 2 9 10 13 13 9 7 -4 -7 -4 -15 0 -19 4
-4 7 -13 7 -18 0 -6 7 -13 15 -15 13 -4 13 -3 0 6 -9 7 -11 11 -3 11 7 0 17
-8 22 -17 6 -10 11 -14 11 -9 0 6 7 1 16 -10 8 -10 13 -14 10 -8 -3 7 1 25 9
40 11 22 12 31 2 43 -10 14 -10 14 3 5 24 -19 45 9 24 30 -8 9 -18 16 -22 16
-4 0 -21 14 -39 30 -18 17 -33 30 -35 30 -2 -1 -19 -15 -39 -33z m54 -22 c-3
-9 -8 -14 -10 -11 -3 3 -2 9 2 15 9 16 15 13 8 -4z"/>
<path d="M1474 1491 c-28 -10 -56 -15 -62 -13 -7 2 -12 -5 -13 -15 0 -14 -2
-15 -7 -3 -9 19 -50 19 -63 0 -9 -13 -10 -12 -6 2 8 22 -15 29 -30 9 -11 -14
-12 -13 -8 7 2 12 0 22 -4 22 -9 0 -42 -37 -59 -67 -8 -15 -8 -23 -1 -23 5 0
7 -4 4 -10 -3 -5 1 -10 9 -10 9 0 16 -4 16 -9 0 -6 9 -8 20 -6 11 2 22 0 25
-4 7 -12 55 -1 55 12 0 7 4 7 12 -1 14 -14 42 -16 33 -2 -3 6 -1 10 4 10 6 0
11 -10 12 -22 0 -13 3 -18 5 -11 4 8 13 9 29 3 16 -6 27 -6 31 2 5 7 3 8 -6 3
-9 -5 -11 -4 -6 3 4 7 17 10 29 8 12 -2 28 2 36 8 11 8 13 8 7 -1 -4 -7 -2
-13 3 -13 6 0 11 7 11 16 0 8 4 13 9 10 19 -12 20 27 1 51 -11 14 -20 32 -20
39 0 21 -13 22 -66 5z m-72 -83 c-8 -8 -9 -4 -5 13 4 13 8 18 11 10 2 -7 -1
-18 -6 -23z m-77 3 c3 -5 2 -12 -3 -15 -5 -3 -9 1 -9 9 0 17 3 19 12 6z"/>
<path d="M1030 1442 c4 -15 7 -100 7 -190 0 -89 3 -165 6 -169 4 -3 2 -12 -4
-19 -7 -8 -7 -14 0 -18 7 -5 7 -15 1 -32 -8 -19 -6 -31 6 -47 10 -14 14 -16
11 -5 -5 13 -1 15 21 9 33 -9 64 -3 56 11 -4 5 -8 56 -9 113 -1 57 -6 108 -9
114 -4 6 -4 11 1 11 4 0 13 -11 20 -25 8 -19 8 -23 0 -19 -7 4 -2 -3 11 -16
13 -12 21 -29 18 -37 -3 -8 -2 -11 4 -8 5 3 8 -25 7 -70 -2 -42 0 -78 4 -80 3
-3 20 -6 38 -7 17 -1 31 -6 31 -11 0 -5 7 -1 16 7 9 9 12 21 7 28 -4 7 -8 54
-9 103 -1 50 -3 117 -4 150 -2 33 0 67 4 76 5 11 -5 20 -41 36 -26 12 -49 20
-51 18 -2 -2 -4 -22 -4 -46 l0 -44 -24 54 c-13 29 -24 57 -24 61 0 4 -16 18
-35 31 -19 13 -35 27 -35 30 0 4 -6 9 -14 12 -11 5 -13 0 -6 -21z"/>
<path d="M1769 1422 c-13 -11 -49 -33 -80 -51 -54 -30 -57 -34 -72 -91 -12
-50 -12 -60 -1 -64 8 -3 14 -16 14 -28 0 -19 2 -20 10 -8 9 13 10 13 10 0 0
-8 9 -21 21 -28 12 -8 18 -19 15 -28 -3 -8 -2 -12 3 -9 14 8 40 -35 33 -54 -9
-24 -23 -31 -69 -31 -42 0 -43 -1 -43 -35 0 -19 5 -35 10 -35 6 0 10 -7 10
-15 0 -8 -7 -15 -16 -15 -11 0 -14 -6 -9 -20 4 -12 1 -28 -7 -37 -8 -10 -8
-14 -1 -10 8 5 11 -8 8 -50 -5 -100 -5 -101 -17 -69 -8 22 -7 30 3 37 10 6 11
9 2 9 -7 0 -13 11 -13 25 0 14 6 25 13 25 9 0 9 2 -1 8 -8 6 -11 22 -8 45 4
36 4 37 -29 37 -28 0 -33 -3 -28 -17 5 -12 3 -14 -8 -8 -11 7 -12 6 -3 -6 6
-8 14 -52 17 -99 3 -47 9 -94 13 -104 6 -15 4 -17 -7 -11 -8 5 -2 -4 14 -20
15 -15 30 -25 34 -21 3 3 16 -2 27 -11 12 -10 15 -11 8 -3 -10 12 -8 16 10 27
13 7 18 12 11 13 -8 0 -9 9 -2 33 6 17 12 54 14 80 2 26 7 52 10 57 4 6 1 10
-5 10 -8 0 -8 6 0 20 8 14 8 20 0 20 -8 0 -8 6 0 20 9 16 8 20 -5 20 -8 0 -15
6 -15 14 0 21 19 30 26 12 5 -13 8 -13 19 -2 7 7 32 12 55 11 27 -1 44 3 47
12 3 7 10 10 17 6 8 -4 8 -3 0 6 -8 8 -8 25 -1 55 13 59 6 79 -58 164 -30 40
-50 70 -44 66 7 -4 9 0 5 13 -4 12 -1 25 9 33 8 7 15 9 15 6 0 -4 10 0 22 8
12 9 27 16 33 16 5 0 3 -5 -5 -11 -12 -9 -12 -10 3 -5 10 3 19 6 20 6 4 0 -1
92 -5 96 -3 2 -16 -4 -29 -14z"/>
<path d="M1595 1400 c3 -5 8 -10 11 -10 2 0 4 5 4 10 0 6 -5 10 -11 10 -5 0
-7 -4 -4 -10z"/>
<path d="M1350 1360 c0 -5 5 -10 10 -10 6 0 10 5 10 10 0 6 -4 10 -10 10 -5 0
-10 -4 -10 -10z"/>
<path d="M1495 1360 c-3 -5 -1 -10 4 -10 6 0 11 5 11 10 0 6 -2 10 -4 10 -3 0
-8 -4 -11 -10z"/>
<path d="M1317 1301 c-2 -9 -1 -26 4 -38 6 -16 15 -20 41 -19 l33 3 0 -133 c0
-73 -3 -136 -7 -140 -14 -14 -8 -23 12 -19 11 2 22 -1 26 -6 4 -6 11 -6 20 2
11 9 18 8 31 -2 11 -10 14 -10 9 -1 -4 7 -2 12 5 12 10 0 10 3 1 12 -15 15
-16 31 0 22 7 -5 8 -3 2 7 -11 17 -13 199 -2 193 4 -3 4 6 -2 20 -11 30 -13
28 23 30 15 1 27 -3 28 -9 0 -5 6 3 13 19 19 43 10 69 -22 61 -28 -7 -156 -8
-189 -1 -14 3 -23 -1 -26 -13z"/>
<path d="M1414 942 c5 -8 3 -13 -5 -11 -34 4 -51 -2 -46 -16 4 -8 2 -17 -4
-20 -5 -4 -6 -12 -2 -18 11 -18 12 -36 2 -43 -5 -3 -9 -11 -9 -17 0 -7 4 -6
10 3 9 13 10 13 10 -1 0 -8 -6 -21 -12 -28 -7 -8 -8 -11 -2 -8 7 4 11 -11 10
-43 0 -31 -4 -47 -10 -43 -6 3 -6 0 1 -7 8 -9 9 -19 3 -31 -7 -11 -7 -20 0
-24 5 -3 10 -1 10 4 0 6 7 11 16 11 8 0 13 -4 10 -8 -3 -5 1 -9 8 -9 11 0 13
19 11 79 -1 43 2 81 6 84 5 3 6 -3 2 -12 -4 -10 -2 -15 4 -11 5 3 9 -3 8 -16
-1 -12 1 -26 4 -32 6 -9 7 -31 2 -37 -2 -2 -4 -12 -6 -24 -3 -16 1 -20 18 -20
13 1 21 -4 19 -12 -1 -8 2 -11 8 -7 6 3 8 11 5 16 -4 5 -3 9 2 9 4 0 8 63 8
140 l0 140 -29 0 c-21 0 -27 -4 -23 -15 4 -8 2 -17 -3 -20 -6 -4 -11 1 -11 9
-3 30 -4 34 -13 43 -5 5 -6 3 -2 -5z"/>
<path d="M1719 948 c-3 -12 -10 -42 -19 -95 -8 -42 -16 -61 -24 -56 -8 5 -8 3
0 -8 16 -21 37 -116 28 -130 -4 -7 -3 -9 4 -5 6 3 13 2 17 -4 3 -5 1 -10 -6
-10 -7 0 -9 -3 -6 -6 4 -4 13 -1 22 6 8 7 15 8 15 3 0 -5 7 -10 15 -10 8 0 12
4 9 9 -3 4 5 8 18 8 19 0 20 -2 8 -11 -13 -9 -13 -10 0 -6 9 2 15 16 15 33 1
38 -4 47 -19 35 -17 -15 -44 7 -48 39 -2 17 2 26 15 28 16 3 17 1 7 -20 -10
-20 -10 -21 3 -6 8 10 16 15 19 13 3 -3 5 12 4 34 -1 24 -5 37 -11 32 -17 -12
-40 -6 -36 9 2 8 4 20 5 25 1 6 6 11 11 12 6 0 9 -3 7 -9 -1 -5 2 -7 8 -3 6 3
7 11 4 17 -5 7 -1 9 9 5 18 -7 26 9 19 36 -3 13 -15 17 -49 17 -27 0 -42 4
-38 10 3 6 4 10 1 10 -3 0 -6 -1 -7 -2z"/>
<path d="M1045 790 c0 -134 4 -152 30 -137 2 1 11 -7 20 -18 l15 -20 -7 20
c-6 18 -5 19 12 5 11 -9 16 -10 11 -2 -4 7 -2 12 7 12 8 0 18 7 21 16 3 8 11
12 17 8 7 -4 9 -3 6 3 -3 5 -3 22 1 38 6 22 3 33 -16 52 l-24 24 24 22 c20 18
23 28 17 51 -5 16 -5 34 -2 39 3 6 1 7 -4 4 -6 -4 -16 0 -23 8 -8 9 -30 15
-59 15 l-46 0 0 -140z m69 81 c8 -12 -3 -41 -15 -41 -6 0 -5 8 1 19 7 14 6 21
-3 24 -9 4 -9 6 0 6 6 1 14 -3 17 -8z m2 -151 c0 -11 -4 -20 -8 -20 -4 0 -8 9
-8 20 0 11 4 20 8 20 4 0 8 -9 8 -20z"/>
<path d="M1229 920 c-1 -5 -3 -14 -4 -20 -1 -5 -3 -19 -4 -31 0 -11 -4 -18 -8
-16 -5 3 -8 -26 -8 -63 0 -37 3 -66 8 -63 4 2 7 -2 8 -9 1 -23 9 -62 14 -66 7
-7 68 -10 82 -5 7 3 13 17 13 32 0 25 -3 27 -30 23 -25 -4 -30 -1 -30 16 0 11
-3 28 -7 38 -5 14 -2 16 20 10 25 -6 27 -4 27 24 0 26 -3 31 -21 28 -15 -2
-23 3 -25 15 -1 9 2 17 7 17 6 0 7 5 4 10 -3 6 -2 10 4 10 5 0 17 3 27 7 12 4
15 3 10 -5 -4 -7 -2 -10 7 -7 9 4 12 16 9 35 -4 29 -7 30 -53 30 -27 0 -50 -4
-50 -10z"/>
<path d="M1270 757 c0 -2 6 -10 14 -16 11 -9 16 -9 22 1 4 7 4 10 -1 6 -4 -4
-14 -3 -22 3 -7 6 -13 9 -13 6z"/>
<path d="M1515 741 c-3 -5 -2 -12 3 -15 5 -3 9 1 9 9 0 17 -3 19 -12 6z"/>
</g>
</svg>
