<svg width="789" height="147" viewBox="0 0 789 147" fill="none" xmlns="http://www.w3.org/2000/svg">
<g filter="url(#filter0_i_190_44721)">
<path d="M60.4745 96.4193V109.128C60.4745 123.884 62.2957 138.662 35.3552 142.571C24.3445 143.811 13.2571 145.128 2.0929 146.521C3.41016 143.195 4.07805 139.647 4.06059 136.07V104.592C3.32597 101.369 1.89735 98.3452 -0.125977 95.7295C1.1831 94.034 2.58055 92.4084 4.06059 90.8594V35.093C4.09202 31.7245 3.42195 28.3863 2.0929 25.29C10.466 24.2867 18.7694 23.2834 27.003 22.2802C27.003 22.2802 52.3317 35.7201 52.1223 50.3306V70.062C62.7981 74.4305 60.4745 96.4193 60.4745 96.4193ZM22.7955 37.1832V81.0773C26.8395 79.6647 31.0736 78.8685 35.3552 78.7154V45.0006C35.4179 38.8136 27.9868 36.5771 22.9001 37.1832H22.7955ZM33.0525 128.169C35.3723 127.852 37.5033 126.721 39.0643 124.979C40.6253 123.236 41.5143 120.996 41.5722 118.659V90.6713C41.5722 86.3237 40.065 82.8121 36.0459 82.9376C28.8241 87.4524 22.7955 95.1861 22.7955 102.544C22.7955 111.74 22.628 120.457 22.628 129.486L33.0525 128.169ZM139.81 38.8345C132.976 38.5743 126.281 40.8028 120.97 45.1051V21.6949C120.97 21.6949 117.37 29.0315 112.597 29.4495C107.825 29.8676 102.131 38.939 102.131 38.939V70.5009C102.131 70.5009 119.045 68.1181 125.911 70.062C116.7 71.6714 104.224 90.2114 104.224 90.2114V112.597C104.224 117.133 108.139 119.85 112.597 119.411C117.056 118.972 120.97 130.051 120.97 125.515V91.9254C126.646 95.2619 133.363 96.3649 139.81 95.0189V122.191C139.948 125.569 140.612 128.904 141.778 132.078H140.501C121.424 133.736 102.333 135.52 83.2285 137.429C83.9897 135.831 84.4037 134.091 84.4434 132.322C84.4831 130.553 84.1475 128.796 83.4588 127.166V99.9935C83.9246 97.7652 83.8744 95.46 83.3121 93.2539C82.7498 91.0478 81.6902 88.9992 80.2142 87.2643C81.7191 85.2212 83.5178 83.411 85.5521 81.8925V26.4605C85.0497 22.9908 83.0611 16.1977 83.0611 16.1977C101.984 14.2886 120.935 12.5817 139.915 11.0767L141.882 10.9304C140.732 14.2092 140.069 17.6388 139.915 21.1096L139.81 38.8345ZM221.197 126.769C213.731 127.187 206.258 127.626 198.778 128.086C199.9 124.88 200.487 121.512 200.515 118.116V76.8133L183.769 54.6572V119.182C183.725 122.508 184.286 125.815 185.423 128.943C177.97 129.444 170.532 129.967 163.108 130.51C164.276 127.299 164.891 123.914 164.929 120.498V94.2037C164.967 89.0641 163.28 84.06 160.136 79.9904C161.606 78.0378 163.208 76.1872 164.929 74.4514V19.1867C164.975 15.8121 164.415 12.4566 163.276 9.27915C170.728 8.7357 178.194 8.21315 185.674 7.71151C184.537 10.9788 183.95 14.4112 183.936 17.8698V23.388L200.683 45.544V16.8038C200.685 13.4114 200.067 10.047 198.861 6.87543C206.439 6.40165 214.003 5.95575 221.553 5.53771C220.202 8.75619 219.491 12.2064 219.459 15.696V70.9608C221.236 72.4275 222.857 74.0736 224.295 75.8727C221.158 80.314 219.47 85.613 219.459 91.0475V117.008C219.491 120.345 220.115 123.649 221.301 126.769H221.197ZM308.152 72.4239C301.328 81.8089 301.328 98.5304 308.152 107.539C290.924 128.692 258.876 129.904 241.669 110.068C248.493 100.37 248.493 83.9827 241.669 74.953C243.097 73.0049 244.756 71.2363 246.609 69.6857V14.4419C246.612 10.969 245.899 7.53266 244.516 4.3463C252.073 3.99096 259.65 3.65653 267.207 3.343C266.045 6.64809 265.443 10.1238 265.428 13.6268C265.428 42.8895 265.742 71.1907 265.742 100.223C265.664 102.157 266.272 104.056 267.459 105.586C268.646 107.115 270.336 108.177 272.231 108.584C273.477 108.766 274.748 108.675 275.955 108.319C277.163 107.963 278.279 107.349 279.226 106.52C280.173 105.692 280.929 104.668 281.442 103.52C281.954 102.371 282.211 101.125 282.195 99.8681C282.195 70.7726 282.362 42.346 282.362 13.0833C282.408 9.61489 281.856 6.16446 280.73 2.88316C288.949 2.56267 297.099 2.28397 305.179 2.04708C303.96 5.33234 303.329 8.80632 303.316 12.3099V67.491C305.091 68.98 306.743 70.6086 308.256 72.3612L308.152 72.4239ZM384.996 28.5298C378.334 27.7139 371.609 29.4301 366.156 33.3373V9.90621C366.156 9.90621 361.154 16.9711 356.465 17.0338C351.776 17.0965 347.296 25.6872 347.296 25.6872V57.2282C347.296 57.2282 362.849 56.1622 369.715 58.6286C360.484 59.5483 349.389 77.085 349.389 77.085V99.5337C349.429 100.58 349.679 101.608 350.125 102.556C350.571 103.504 351.203 104.352 351.985 105.05C352.766 105.749 353.68 106.283 354.673 106.621C355.666 106.958 356.716 107.093 357.762 107.017C362.326 107.017 366.136 118.304 366.136 113.747V80.2203C371.667 83.9419 378.352 85.5587 384.975 84.7769V111.949C385.122 115.374 385.785 118.756 386.943 121.982H384.263C365.075 121.982 345.887 122.219 326.698 122.693C328.035 119.445 328.601 115.933 328.352 112.43V85.2577C328.072 80.5869 326.451 76.0953 323.684 72.3194C325.419 70.0489 327.763 68.3166 330.445 67.3238V11.9337C328.858 8.56221 327.549 5.06695 326.531 1.48273C346.082 1.02289 365.626 0.792969 385.164 0.792969H387.131C385.974 4.01942 385.31 7.4018 385.164 10.8259L384.996 28.5298ZM468.685 122.881C461.191 122.714 453.677 122.568 446.183 122.442C447.375 119.295 447.999 115.962 448.025 112.597V85.9683C447.921 80.8069 446.217 75.8046 443.147 71.6505C444.616 69.8271 446.226 68.1219 447.962 66.5504V11.2439C447.961 7.82146 447.359 4.42569 446.183 1.21101H445.869V3.3012C456.67 3.46842 467.464 3.69834 478.252 3.99096C502.387 3.55202 502.534 28.1954 502.534 28.1745V57.0192C502.534 69.5603 501.236 81.3072 477.812 81.3072L466.906 81.0355V113.057C466.935 116.409 467.536 119.732 468.685 122.881ZM483.673 58.3151V27.2966C483.649 25.028 482.753 22.8553 481.172 21.226C479.591 19.5967 477.445 18.6349 475.175 18.5387L466.969 18.3297V66.4041L475.175 66.6132C476.279 66.6297 477.377 66.4278 478.403 66.019C479.429 65.6102 480.364 65.0025 481.154 64.2312C481.944 63.4598 482.574 62.5399 483.006 61.5245C483.438 60.5092 483.665 59.4184 483.673 58.3151ZM584.884 127.772C577.404 127.312 569.917 126.887 562.423 126.497C562.476 123.545 562.03 120.606 561.104 117.802C557.378 106.543 553.659 95.2906 549.947 84.0454L544.462 83.7736V115.754C544.499 119.129 545.115 122.473 546.283 125.64C538.72 125.264 531.156 124.923 523.592 124.616C524.566 121.52 525.266 118.345 525.686 115.127V89.2499C525.612 83.8221 523.857 78.5501 520.662 74.1588C522.165 72.3368 523.848 70.6702 525.686 69.1841V14.003C525.46 10.4006 524.756 6.84403 523.592 3.42661C534.045 3.84465 544.511 4.3254 554.991 4.86885C578.708 6.77092 580.216 18.476 580.216 31.1635V60.259C580.216 69.9575 579.378 78.9244 568.933 82.3523C572.798 94.1689 576.664 106.013 580.529 117.886C581.491 121.375 582.958 124.706 584.884 127.772ZM561.229 61.4086V30.4528C561.201 28.1475 560.297 25.9391 558.7 24.2744C557.102 22.6096 554.931 21.6129 552.626 21.4859L544.42 21.0678V69.1423L552.626 69.5603C553.737 69.6324 554.852 69.4744 555.899 69.096C556.946 68.7177 557.904 68.1272 558.712 67.3618C559.52 66.5963 560.16 65.6723 560.594 64.6479C561.027 63.6234 561.243 62.5206 561.229 61.4086ZM630.936 80.2203C627.735 84.3239 626.043 89.4005 626.142 94.6008V120.728C626.182 124.144 626.798 127.529 627.963 130.74C620.532 130.176 612.934 129.653 605.481 129.152C606.752 126.057 607.372 122.735 607.303 119.391V93.3676C607.364 87.9093 605.685 82.573 602.509 78.1301C603.978 76.3852 605.581 74.7569 607.303 73.26V18.0162C607.29 14.5502 606.674 11.1129 605.481 7.85782C612.975 8.35947 620.469 8.88898 627.963 9.44637C626.767 12.6133 626.15 15.9691 626.142 19.3539V74.6186C627.866 76.3746 629.468 78.2462 630.936 80.2203ZM682.514 13.9612C709.538 17.3264 707.634 32.3131 707.634 46.8608V106.975C707.634 121.732 709.455 136.885 682.514 135.192C672.132 134.259 661.749 133.36 651.366 132.496C652.715 129.317 653.392 125.894 653.355 122.442V96.9419C653.326 91.4809 651.664 86.1529 648.582 81.6416C649.945 79.8281 651.551 78.2104 653.355 76.8342V21.4859C653.357 17.976 652.682 14.4985 651.366 11.2439C661.749 12.1218 672.132 13.0276 682.514 13.9612ZM688.899 112.639V39.8169C688.855 37.4846 687.958 35.249 686.377 33.5317C684.796 31.8144 682.64 30.7341 680.316 30.4946L672.111 29.763V119.641L680.316 120.373C681.403 120.501 682.505 120.396 683.548 120.064C684.591 119.732 685.551 119.182 686.364 118.45C687.177 117.717 687.823 116.82 688.26 115.818C688.698 114.816 688.915 113.732 688.899 112.639ZM787.074 53.0478C783.931 52.1865 780.649 51.9537 777.416 52.3626C774.183 52.7715 771.062 53.8142 768.234 55.4306V32.0205C768.234 32.0205 764.048 38.5419 759.463 37.9984C754.879 37.455 749.395 45.3768 749.395 45.3768V76.9805C749.395 76.9805 765.764 78.0256 772.609 81.3699C763.42 81.0982 751.488 97.1091 751.488 97.1091V119.516C751.604 121.714 752.518 123.794 754.059 125.368C755.6 126.941 757.663 127.9 759.861 128.065C764.403 128.587 768.234 140.418 768.234 135.861V102.272C773.541 106.662 780.183 109.123 787.074 109.253V136.426C787.232 139.93 787.895 143.393 789.041 146.709L787.241 146.479C768.15 144.111 749.053 141.923 729.948 139.916C731.41 136.73 731.677 133.125 730.702 129.758V102.585C731.099 97.7994 729.761 93.0301 726.934 89.1454C728.327 87.7833 729.589 86.2926 730.702 84.6933V29.2614C731.769 25.8753 729.781 18.6641 729.781 18.6641C748.871 20.6846 767.969 22.9002 787.074 25.3109L789.041 25.5618C787.872 28.6982 787.208 31.9999 787.074 35.3439V53.0478Z" fill="url(#paint0_linear_190_44721)"/>
</g>
<defs>
<filter id="filter0_i_190_44721" x="-0.125977" y="0.792969" width="789.167" height="150.35" filterUnits="userSpaceOnUse" color-interpolation-filters="sRGB">
<feFlood flood-opacity="0" result="BackgroundImageFix"/>
<feBlend mode="normal" in="SourceGraphic" in2="BackgroundImageFix" result="shape"/>
<feColorMatrix in="SourceAlpha" type="matrix" values="0 0 0 0 0 0 0 0 0 0 0 0 0 0 0 0 0 0 127 0" result="hardAlpha"/>
<feOffset dy="4.43407"/>
<feGaussianBlur stdDeviation="3.32555"/>
<feComposite in2="hardAlpha" operator="arithmetic" k2="-1" k3="1"/>
<feColorMatrix type="matrix" values="0 0 0 0 0 0 0 0 0 0 0 0 0 0 0 0 0 0 1 0"/>
<feBlend mode="normal" in2="shape" result="effect1_innerShadow_190_44721"/>
</filter>
<linearGradient id="paint0_linear_190_44721" x1="389.162" y1="192.986" x2="404.314" y2="-60.8704" gradientUnits="userSpaceOnUse">
<stop stop-color="#17130F"/>
<stop offset="1" stop-color="#906131"/>
</linearGradient>
</defs>
</svg>
